# xmcd CD Database Entry
#
# Track frame offsets:
# 150
# 13433
# 28182
# 39167
# 53193
# 64772
# 72741
# 87232
# 101384
# 113991
# 132914
# 147337
#
# Disc length: 2080 seconds
#
# Revision: 3
# Processed by: cddbd v1.4PL0 Copyright (c) Steve Scherf et al.
# Submitted via: tcd 2.0b
#
DISCID=ae081e0c
DTITLE=Justin Petraitis - A Touch of Bluegrass
DYEAR=1900
DGENRE=
TTITLE0=Smoky Mountain Train
TTITLE1=Sweet Sunny South
TTITLE2=Gold Watch and Chain (for Skip)
TTITLE3=Farther Along
TTITLE4=Rough and Rocky
TTITLE5=Nicole's Song
TTITLE6=Nine Pound Hammer
TTITLE7=I Let My Heart Fail For You (Carl Hale)
TTITLE8=Don't Let Your Deal Go Down
TTITLE9=The Fields Have Turned Brown (for Skip)
TTITLE10=Fire Bright
TTITLE11=Son of the Unknown
EXTD=Produced 2003 Cardinal Studios Murfreesboro, TN\nProduced by 
EXTD=Justin Petraitis\nAll Rights Reserved
EXTT0=
EXTT1=
EXTT2=
EXTT3=
EXTT4=
EXTT5=
EXTT6=
EXTT7=
EXTT8=
EXTT9=
EXTT10=
EXTT11=
PLAYORDER=
